<?xml version="1.0" encoding="UTF-8"?>
<svg version="1.1" xmlns="http://www.w3.org/2000/svg" width="225" height="225">
<path d="M0 0 C74.25 0 148.5 0 225 0 C225 74.25 225 148.5 225 225 C150.75 225 76.5 225 0 225 C0 150.75 0 76.5 0 0 Z " fill="#FDFDFD" transform="translate(0,0)"/>
<path d="M0 0 C9.76433078 1.57489206 17.48848323 5.48749275 23.84375 13.19140625 C27.63670054 19.12429848 27.85419619 25.14984413 27 32 C25.65809666 35.86206327 23.97195737 39.42230591 22 43 C21.12952026 42.77691162 21.12952026 42.77691162 20.24145508 42.54931641 C16.74877405 41.69336038 13.22116351 41.03469863 9.6875 40.375 C8.95337891 40.22804687 8.21925781 40.08109375 7.46289062 39.9296875 C-0.6938187 38.42427886 -6.87503521 40.15100454 -14.44921875 43.2578125 C-17.15288689 44.0444847 -18.39837147 43.96266348 -21 43 C-20.29875 42.59910156 -19.5975 42.19820312 -18.875 41.78515625 C-9.6921885 36.28295534 -2.5967964 30.34620651 1 20 C1.34413656 17.25295681 1.33304608 14.57637729 1.25 11.8125 C1.24484375 11.11447266 1.2396875 10.41644531 1.234375 9.69726562 C1.1832382 6.33821724 1.02914434 3.21192629 0 0 Z " fill="#F9F5F7" transform="translate(110,48)"/>
<path d="M0 0 C1.98 0 3.96 0 6 0 C8.82584151 5.52039391 11.39141875 11.07800953 13.75 16.8125 C14.06582031 17.56208984 14.38164062 18.31167969 14.70703125 19.08398438 C17 24.63773336 17 24.63773336 17 28 C17.66 28 18.32 28 19 28 C19.12310547 27.28360352 19.24621094 26.56720703 19.37304688 25.82910156 C20.0088888 22.95988964 20.91491918 20.45038622 22.03125 17.734375 C22.42957031 16.76242188 22.82789063 15.79046875 23.23828125 14.7890625 C23.86283203 13.28472656 23.86283203 13.28472656 24.5 11.75 C25.12455078 10.22246094 25.12455078 10.22246094 25.76171875 8.6640625 C28.86277636 1.13722364 28.86277636 1.13722364 30 0 C31.98 0 33.96 0 36 0 C36 12.54 36 25.08 36 38 C33.69 38 31.38 38 29 38 C28.67 33.05 28.34 28.1 28 23 C26.02 27.62 24.04 32.24 22 37 C19.36 37 16.72 37 14 37 C12.02 32.38 10.04 27.76 8 23 C7.67 27.95 7.34 32.9 7 38 C4.69 38 2.38 38 0 38 C0 25.46 0 12.92 0 0 Z " fill="#1312F5" transform="translate(124,98)"/>
<path d="M0 0 C2.87659826 -0.1356886 5.74673463 -0.23440753 8.625 -0.3125 C9.43324219 -0.35439453 10.24148437 -0.39628906 11.07421875 -0.43945312 C15.35404786 -0.52644152 18.12882671 -0.36802858 21.5234375 2.39453125 C24 5 24 5 25 7 C24.74580877 9.51561665 24.35600585 11.99505733 23.9609375 14.4921875 C24.00998241 17.64087089 25.08655352 18.57920028 27 21 C27.77311634 25.23698072 27.4312554 28.98654981 25.75 32.9375 C23.39245697 35.71603285 21.35848745 36.86530988 17.70996094 37.22705078 C16.89301758 37.21657715 16.07607422 37.20610352 15.234375 37.1953125 C14.43225586 37.19031738 13.63013672 37.18532227 12.80371094 37.18017578 C11.79598633 37.16196777 10.78826172 37.14375977 9.75 37.125 C6.5325 37.08375 3.315 37.0425 0 37 C0 29.74 0 22.48 0 15 C7.375 14.5625 7.375 14.5625 9.69287109 14.43188477 C13.47181316 14.23790296 13.47181316 14.23790296 17 13 C17.042721 11.33388095 17.04063832 9.66617115 17 8 C14.94077598 5.94077598 10.78291876 6.58572421 7.9375 6.4375 C7.17888672 6.39431641 6.42027344 6.35113281 5.63867188 6.30664062 C3.75934562 6.20026367 1.87969756 6.09960066 0 6 C0 4.02 0 2.04 0 0 Z " fill="#0706F5" transform="translate(92,98)"/>
<path d="M0 0 C1.98 0 3.96 0 6 0 C6 4.95 6 9.9 6 15 C12.6 15 19.2 15 26 15 C26 10.05 26 5.1 26 0 C27.98 0 29.96 0 32 0 C32 12.21 32 24.42 32 37 C30.02 37 28.04 37 26 37 C26 31.72 26 26.44 26 21 C19.73 21 13.46 21 7 21 C7 26.28 7 31.56 7 37 C4.69 37 2.38 37 0 37 C0 24.79 0 12.58 0 0 Z " fill="#0606F7" transform="translate(40,98)"/>
<path d="M0 0 C2.64 0 5.28 0 8 0 C9.51782707 3.65957697 11.02914551 7.32177173 12.53491211 10.98632812 C13.29536938 12.83339169 14.06071526 14.67844015 14.82617188 16.5234375 C17.59286327 23.26610262 20.10028078 29.96016302 22 37 C19.69 37 17.38 37 15 37 C11.37 28.09 7.74 19.18 4 10 C0.75109866 18.51048033 0.75109866 18.51048033 -2.49194336 27.02319336 C-3.09727905 28.6030603 -3.09727905 28.6030603 -3.71484375 30.21484375 C-4.12855225 31.29886475 -4.54226074 32.38288574 -4.96850586 33.49975586 C-6 36 -6 36 -7 37 C-8.99958364 37.04080783 -11.00045254 37.04254356 -13 37 C-12.38422601 32.25885934 -11.03450353 28.05172395 -9.27734375 23.6328125 C-9.01240616 22.95322479 -8.74746857 22.27363708 -8.47450256 21.57345581 C-7.63425265 19.42180285 -6.78602252 17.27340218 -5.9375 15.125 C-5.36340046 13.65906233 -4.7898273 12.19291841 -4.21679688 10.7265625 C-2.81727522 7.14862712 -1.4105921 3.57358457 0 0 Z " fill="#0808F4" transform="translate(177,98)"/>
<path d="M0 0 C3.196875 -0.0825 6.39375 -0.165 9.6875 -0.25 C10.68612061 -0.28641602 11.68474121 -0.32283203 12.71362305 -0.36035156 C16.98285395 -0.41369006 19.36670269 -0.38848656 23.08203125 1.890625 C26.09095645 5.1998299 26.28789049 7.49275974 26.21484375 11.96484375 C25.89676548 14.97791241 24.95495094 16.70798855 23 19 C18.66250366 21.67904186 13.92667513 21.19320295 9 21 C9 18.69 9 16.38 9 14 C13.455 13.505 13.455 13.505 18 13 C18.33 11.68 18.66 10.36 19 9 C16.16776028 5.74097068 16.16776028 5.74097068 6 6 C6 16.23 6 26.46 6 37 C4.02 37 2.04 37 0 37 C0 24.79 0 12.58 0 0 Z " fill="#0000FA" transform="translate(9,98)"/>
<path d="M0 0 C2.8125 0 2.8125 0 6 1 C9.96330519 7.73761882 9.80117484 15.37103512 9 23 C6.72685231 30.83380466 1.00623148 35.77846752 -5.8125 39.859375 C-14.61932802 44.45150675 -14.61932802 44.45150675 -19.265625 43.5703125 C-20.12414062 43.28800781 -20.12414062 43.28800781 -21 43 C-20.29875 42.59910156 -19.5975 42.19820312 -18.875 41.78515625 C-9.6921885 36.28295534 -2.5967964 30.34620651 1 20 C1.34413656 17.25295681 1.33304608 14.57637729 1.25 11.8125 C1.24484375 11.11447266 1.2396875 10.41644531 1.234375 9.69726562 C1.1832382 6.33821724 1.02914434 3.21192629 0 0 Z " fill="#F50506" transform="translate(110,48)"/>
<path d="M0 0 C7.59 0 15.18 0 23 0 C23 1.98 23 3.96 23 6 C20.03 6 17.06 6 14 6 C14 16.23 14 26.46 14 37 C12.02 37 10.04 37 8 37 C8 26.77 8 16.54 8 6 C5.36 6 2.72 6 0 6 C0 4.02 0 2.04 0 0 Z " fill="#0000F6" transform="translate(196,98)"/>
<path d="M0 0 C1.32 0.33 2.64 0.66 4 1 C6.43029078 5.86058157 6.2118651 10.70337242 6 16 C7.95901454 15.88617347 9.9172338 15.75858875 11.875 15.625 C13.51082031 15.52058594 13.51082031 15.52058594 15.1796875 15.4140625 C18.13046474 15.26746509 18.13046474 15.26746509 20 13 C20.71408334 11.01643517 21.38617742 9.01684563 22 7 C23.65 7 25.3 7 27 7 C27.44811859 15.81299886 27.44811859 15.81299886 24 20 C20.98961974 21.86221636 18.74740115 22.2403513 15.234375 22.1953125 C14.43225586 22.19031738 13.63013672 22.18532227 12.80371094 22.18017578 C11.79598633 22.16196777 10.78826172 22.14375977 9.75 22.125 C6.5325 22.08375 3.315 22.0425 0 22 C0 14.74 0 7.48 0 0 Z " fill="#0101F8" transform="translate(92,113)"/>
<path d="M0 0 C8.6767548 2.1691887 14.38416439 7.58668827 19 15 C21.41839838 22.25519513 20.65470612 29.37024542 17.5 36.25 C16.68903176 37.8449042 15.86369011 39.43301937 15 41 C12.83125748 40.49396008 11.00032373 40.00016187 9 39 C9.14168137 37.56208484 9.28851043 36.1246763 9.4375 34.6875 C9.51871094 33.88699219 9.59992188 33.08648437 9.68359375 32.26171875 C10 30 10 30 11 27 C11.91092735 15.69619509 11.91092735 15.69619509 7 6 C4.74301879 4.1586513 2.44496467 2.59863075 0 1 C0 0.67 0 0.34 0 0 Z " fill="#0C0BF4" transform="translate(117,50)"/>
<path d="M0 0 C1.98 0 3.96 0 6 0 C6 12.21 6 24.42 6 37 C4.02 37 2.04 37 0 37 C0 24.79 0 12.58 0 0 Z " fill="#0000F9" transform="translate(79,98)"/>
<path d="M0 0 C3.32957907 0.27746492 4.78804723 0.81096104 7.3125 3.0625 C9.50277225 6.87519614 9.71348953 9.70166066 9 14 C7.70323659 17.13953245 6.75655724 18.53271464 3.875 20.3125 C-0.10561035 21.26438508 -3.92789138 21.15969053 -8 21 C-8 18.69 -8 16.38 -8 14 C-3.545 13.505 -3.545 13.505 1 13 C1.33 11.68 1.66 10.36 2 9 C1.505 8.54625 1.01 8.0925 0.5 7.625 C0.005 7.08875 -0.49 6.5525 -1 6 C-0.6875 2.8125 -0.6875 2.8125 0 0 Z " fill="#0606F6" transform="translate(26,98)"/>
<path d="M0 0 C1.93681161 -0.08107583 3.8745934 -0.13922475 5.8125 -0.1875 C6.89144531 -0.22230469 7.97039062 -0.25710937 9.08203125 -0.29296875 C12 0 12 0 13.8984375 1.3515625 C15 3 15 3 14.8125 5.5625 C14 8 14 8 12 10 C9.1796875 10.1953125 9.1796875 10.1953125 5.875 10.125 C4.77929688 10.10695312 3.68359375 10.08890625 2.5546875 10.0703125 C1.71164063 10.04710937 0.86859375 10.02390625 0 10 C0 6.7 0 3.4 0 0 Z " fill="#F5F5FA" transform="translate(98,119)"/>
<path d="M0 0 C3.63 0 7.26 0 11 0 C11.99 0.99 12.98 1.98 14 3 C13.74853421 5.13745922 13.54074221 6.45925779 12 8 C8.7 8 5.4 8 2 8 C1.67 15.92 1.34 23.84 1 32 C-1.31 32 -3.62 32 -6 32 C-6 31.67 -6 31.34 -6 31 C-4.02 31 -2.04 31 0 31 C0 20.77 0 10.54 0 0 Z " fill="#DADAF4" transform="translate(15,104)"/>
<path d="M0 0 C5.61 0 11.22 0 17 0 C17 1.65 17 3.3 17 5 C16 6 16 6 12.40234375 6.09765625 C10.91403133 6.0909822 9.42573568 6.07902183 7.9375 6.0625 C7.17888672 6.05798828 6.42027344 6.05347656 5.63867188 6.04882812 C3.75908129 6.0370068 1.87953101 6.01907078 0 6 C0 4.02 0 2.04 0 0 Z " fill="#0000F9" transform="translate(92,98)"/>
<path d="M0 0 C0.33 0.99 0.66 1.98 1 3 C2.65 3 4.3 3 6 3 C6 4.32 6 5.64 6 7 C6.66 7.33 7.32 7.66 8 8 C7.34 9.32 6.68 10.64 6 12 C3.36 12 0.72 12 -2 12 C-3.0625 10.1875 -3.0625 10.1875 -4 8 C-3 5 -3 5 -1 3 C-0.67 2.01 -0.34 1.02 0 0 Z " fill="#0606F7" transform="translate(140,123)"/>
<path d="M0 0 C1.98 0 3.96 0 6 0 C6 1.32 6 2.64 6 4 C6.99 4 7.98 4 9 4 C9.33 2.68 9.66 1.36 10 0 C10 1.32 10 2.64 10 4 C10.99 4 11.98 4 13 4 C13 2.68 13 1.36 13 0 C14.98 0 16.96 0 19 0 C19.33 0.99 19.66 1.98 20 3 C19.34 3.66 18.68 4.32 18 5 C18 3.68 18 2.36 18 1 C17.01 1.99 16.02 2.98 15 4 C15.66 4.66 16.32 5.32 17 6 C11.39 6 5.78 6 0 6 C0 4.02 0 2.04 0 0 Z " fill="#767676" transform="translate(144,141)"/>
<path d="M0 0 C3.63 0 7.26 0 11 0 C12 3 12 3 12 6 C8.04 6 4.08 6 0 6 C0 4.02 0 2.04 0 0 Z " fill="#747474" transform="translate(130,141)"/>
<path d="M0 0 C2.64 0 5.28 0 8 0 C8 1.65 8 3.3 8 5 C8.99 5.33 9.98 5.66 11 6 C8.59454362 7.20272819 7.05003047 7.10071472 4.375 7.0625 C3.14910156 7.04896484 3.14910156 7.04896484 1.8984375 7.03515625 C0.95871094 7.01775391 0.95871094 7.01775391 0 7 C0 4.69 0 2.38 0 0 Z " fill="#2A29E3" transform="translate(18,112)"/>
<path d="M0 0 C2.97 0.495 2.97 0.495 6 1 C6.66 2.98 7.32 4.96 8 7 C6.68 6.34 5.36 5.68 4 5 C4 8.63 4 12.26 4 16 C4.66 16 5.32 16 6 16 C5.75 17.875 5.75 17.875 5 20 C2.953125 21.1328125 2.953125 21.1328125 1 22 C1.01740234 20.12054688 1.01740234 20.12054688 1.03515625 18.203125 C1.04453716 16.55208483 1.05363704 14.90104304 1.0625 13.25 C1.07087891 12.425 1.07925781 11.6 1.08789062 10.75 C1.09272461 9.55117188 1.09272461 9.55117188 1.09765625 8.328125 C1.10289307 7.5949707 1.10812988 6.86181641 1.11352539 6.10644531 C0.9975109 3.9538151 0.59073271 2.0685865 0 0 Z " fill="#EF1719" transform="translate(110,48)"/>
<path d="M0 0 C4.66666667 0 9.33333333 0 14 0 C13.01 0.495 13.01 0.495 12 1 C12 2.65 12 4.3 12 6 C9.625 6.125 9.625 6.125 7 6 C6.34 5.34 5.68 4.68 5 4 C2.39719432 4.32041397 2.39719432 4.32041397 0 5 C0 3.35 0 1.7 0 0 Z " fill="#8A8A8A" transform="translate(87,141)"/>
<path d="M0 0 C0.33 0.66 0.66 1.32 1 2 C1.66 2 2.32 2 3 2 C3 1.34 3 0.68 3 0 C5.31 0 7.62 0 10 0 C10 1.98 10 3.96 10 6 C7.69 5.67 5.38 5.34 3 5 C3 4.34 3 3.68 3 3 C2.34 3 1.68 3 1 3 C0.67 3.66 0.34 4.32 0 5 C0 3.35 0 1.7 0 0 Z " fill="#868686" transform="translate(65,141)"/>
<path d="M0 0 C1.33841672 0.31229724 2.67139075 0.64830932 4 1 C6.18703385 0.62092718 6.18703385 0.62092718 8 0 C8 0.99 8 1.98 8 3 C7.01 3 6.02 3 5 3 C4.67 3.66 4.34 4.32 4 5 C1.9375 5.625 1.9375 5.625 0 6 C-0.66 4.68 -1.32 3.36 -2 2 C-1.34 1.34 -0.68 0.68 0 0 Z " fill="#777777" transform="translate(119,141)"/>
<path d="M0 0 C1.32 0.33 2.64 0.66 4 1 C4 2.65 4 4.3 4 6 C-3.75 6.125 -3.75 6.125 -6 5 C-5.67 3.68 -5.34 2.36 -5 1 C-3.02 1.495 -3.02 1.495 -1 2 C-0.67 1.34 -0.34 0.68 0 0 Z " fill="#7C7C7C" transform="translate(173,141)"/>
<path d="M0 0 C2.4375 0.375 2.4375 0.375 5 1 C5.33 1.66 5.66 2.32 6 3 C5.01 3.495 5.01 3.495 4 4 C3.34444881 6.52733235 3.34444881 6.52733235 3 9 C1.68 8.01 0.36 7.02 -1 6 C-0.67 4.02 -0.34 2.04 0 0 Z " fill="#1111EF" transform="translate(26,98)"/>
<path d="M0 0 C1.98 0 3.96 0 6 0 C6.33 0.99 6.66 1.98 7 3 C6.34 3 5.68 3 5 3 C5 3.66 5 4.32 5 5 C3.68 5.33 2.36 5.66 1 6 C0.67 4.02 0.34 2.04 0 0 Z " fill="#FC0000" transform="translate(110,72)"/>
<path d="M0 0 C1.32 0.33 2.64 0.66 4 1 C3.67 2.65 3.34 4.3 3 6 C1.02 6 -0.96 6 -3 6 C-2.34 5.01 -1.68 4.02 -1 3 C-0.67 2.01 -0.34 1.02 0 0 Z " fill="#0000F6" transform="translate(167,129)"/>
<path d="M0 0 C1.65 0 3.3 0 5 0 C5.33 0.99 5.66 1.98 6 3 C5.67 3.66 5.34 4.32 5 5 C3.35 5 1.7 5 0 5 C0 3.35 0 1.7 0 0 Z " fill="#0000FC" transform="translate(19,113)"/>
<path d="M0 0 C0 1.32 0 2.64 0 4 C-1.98 4 -3.96 4 -6 4 C-6 2.68 -6 1.36 -6 0 C-2.25 -1.125 -2.25 -1.125 0 0 Z " fill="#A9A9A9" transform="translate(136,143)"/>
<path d="M0 0 C4.61513112 1.31860889 8.09897612 3.21355437 12 6 C10.02 6.99 10.02 6.99 8 8 C5.33333333 5.33333333 2.66666667 2.66666667 0 0 Z " fill="#1B19E2" transform="translate(117,50)"/>
<path d="M0 0 C0 0.99 0 1.98 0 3 C-6.28571429 5.42857143 -6.28571429 5.42857143 -10 4 C-3.375 0 -3.375 0 0 0 Z " fill="#EC2626" transform="translate(99,87)"/>
<path d="M0 0 C2.31 0 4.62 0 7 0 C6.01 0.495 6.01 0.495 5 1 C4.34786708 3.02463255 4.34786708 3.02463255 4 5 C4 4.34 4 3.68 4 3 C2.68 3.33 1.36 3.66 0 4 C0 2.68 0 1.36 0 0 Z " fill="#636363" transform="translate(94,141)"/>
<path d="M0 0 C0.33 1.32 0.66 2.64 1 4 C-2.3 3.34 -5.6 2.68 -9 2 C-9 1.67 -9 1.34 -9 1 C-4.545 0.505 -4.545 0.505 0 0 Z " fill="#D6485C" transform="translate(125,85)"/>
<path d="M0 0 C0.99 0.33 1.98 0.66 3 1 C3 1.66 3 2.32 3 3 C3.99 3.33 4.98 3.66 6 4 C3.36 3.67 0.72 3.34 -2 3 C-1.34 2.01 -0.68 1.02 0 0 Z " fill="#F5D8D7" transform="translate(110,83)"/>
</svg>
